<?xml version="1.0" encoding="UTF-8"?>
<svg id="Ebene_3" xmlns="http://www.w3.org/2000/svg" version="1.1" viewBox="0 0 185.04 151.39">
  <!-- Generator: Adobe Illustrator 29.0.1, SVG Export Plug-In . SVG Version: 2.1.0 Build 192)  -->
  <defs>
    <style>
      .st0 {
        fill: #a64291;
        stroke: #a64291;
        stroke-linecap: round;
        stroke-linejoin: round;
        stroke-width: .5px;
      }

      .st1 {
        fill: #fff;
      }
    </style>
  </defs>
  <g>
    <path class="st1" d="M78.41,55.7h-11.47l-6.17-7.37h-13.16v7.37h-8.57v-14.24h24.09c2.65,0,4.72-1.21,4.72-3.12,0-2.16-1.78-3.25-4.72-3.25h-24.09v-7.24h23.39c6.29,0,14.24,2,14.24,9.95,0,4.33-2.69,7.91-7.24,8.83.95.71,1.99,1.71,3.89,3.66l5.09,5.41Z"/>
    <path class="st1" d="M126.64,43.29c0,8.27-5.75,12.41-17.26,12.41-13.33,0-19.08-4.14-19.08-12.41v-15.44h8.53v15.44c0,4.05,1.74,5.36,10.56,5.36,6.58,0,8.65-1.52,8.65-5.36v-15.44h8.61v15.44Z"/>
    <path class="st1" d="M68.02,78.6c6.75,0,10.39,2.54,10.39,7.62,0,5.7-2.16,8.74-10.6,8.74h-28.77v-7.08l28.15.3c2.03,0,2.94-.58,2.94-2.04s-.91-2-2.94-2l-17.76-.3c-7.12,0-10.39-3.21-10.39-7.99,0-5.25,3.48-8.66,11.88-8.66h27.49v7.24h-28.15c-1.99,0-2.94.5-2.94,1.92s.95,1.96,2.94,1.96l17.76.3Z"/>
    <path class="st1" d="M126.64,94.96h-9.22v-10.71h-17.82v10.71h-9.31v-27.77h9.31v9.84h17.82v-9.84h9.22v27.77Z"/>
    <g>
      <path class="st1" d="M141.87,85.69c2.4,0,3.48,1.55,3.48,4.64s-1.07,4.64-3.48,4.64-3.47-1.55-3.47-4.64,1.07-4.64,3.47-4.64ZM141.87,87.64c-1.45,0-1.72.71-1.72,2.68s.27,2.68,1.72,2.68,1.73-.71,1.73-2.68-.28-2.68-1.73-2.68Z"/>
      <path class="st1" d="M138.52,77.59l1.75,1.27v3.87h.87v-4.78l1.64,1.19v3.58h2.46v1.97h-6.72v-7.11Z"/>
      <path class="st1" d="M143.51,66.43l1.73,1.27v5.6h-6.72v-1.96h4.99v-4.91Z"/>
      <path class="st1" d="M145.24,63.79v1.96h-6.72v-1.96h6.72Z"/>
      <path class="st1" d="M141.04,58.65v-4.06h4.2v4.35c0,2.2-1.48,3.82-3.43,3.82s-3.29-1.62-3.29-3.82v-4.54l1.75,1.27v3.27c0,1.06.68,1.87,1.64,1.87s1.61-.78,1.61-1.87v-2.4h-.97v3.28l-1.5-1.18Z"/>
      <path class="st1" d="M145.24,45.78v1.95h-2.59v3.77h2.59v1.97h-6.72v-1.97h2.38v-3.77h-2.38v-1.95h6.72Z"/>
      <path class="st1" d="M138.52,36.7l1.75,1.27v2.27h4.97v1.96h-4.97v2.98l-1.75-1.27v-7.2Z"/>
      <path class="st1" d="M141.2,30.23c0-1.54.61-2.38,1.84-2.38,1.38,0,2.2.79,2.2,2.72v5.9l-1.73-1.26v-4.8c0-.46-.14-.67-.49-.67s-.48.21-.48.67v3.45c0,1.63-.77,2.38-1.93,2.38-1.27,0-2.09-.8-2.09-2.72v-5.68l1.75,1.24v4.59c0,.46.12.67.46.67s.47-.22.47-.67v-3.45Z"/>
    </g>
  </g>
  <g>
    <path class="st0" d="M66.18,104.63c.03.07,0,.12-.04.14l-.02.02c-.07.05-.14.1-.21.13-1.28.45-2.29,1.34-3.18,2.13-.3.27-.46.61-.62.98l-.14.29c-.47,1-.93,1.68-1.49,2.23-.07.07-.16.15-.26.2-.14.08-.29.08-.41-.01-.15-.12-.08-.29-.04-.41.09-.27.22-.53.43-.88.44-.69.97-1.35,1.62-2.04.33-.35.42-1.24.19-1.64-.13-.19-.3-.26-.56-.2-.55.14-.97.49-1.39.86-.49.45-.93.99-1.3,1.62-.09.15-.14.29-.13.46-.02.84-.02,1.7,0,2.54l.03,1.08c.01,1.18.07,2.37.13,3.53l.04,1.29c.03.86.08,1.73.12,2.56l.11,1.41c.05.84.07,1.56.07,2.23v.07c0,.12,0,.26-.21.29h-.05c-.19,0-.24-.14-.27-.25l-.08-.29-.08-.14c-.03-.07-.05-.14,0-.19.02-.02.07-.05.14-.05.02,0,.05,0,.05-.03.02-.02.02-.07.02-.12v-.07s-.13-1.92-.13-1.92l-.26-3.88c-.12-1.68-.17-3.4-.18-5.11l-.02-.79c-.01-.46-.03-.94,0-1.39.05-.89.07-1.83.06-2.79l.03-1.46c0-.72,0-1.46-.02-2.21v-.1c0-.1,0-.22.06-.29.05-.05.09-.07.17-.08s.12.02.17.07c.07.07.08.19.08.29v.07c.09.69.09,1.39.09,2.06v.43c.02.29,0,.58,0,.86,0,.48-.02.96,0,1.44v.07c.48-.73.92-1.25,1.42-1.65.3-.25.66-.5,1.09-.63.36-.11.69-.07.94.09.24.16.4.44.41.8v.36s.29-.22.29-.22l.73-.62c.82-.67,1.55-1.1,2.31-1.34.07-.03.14-.05.21-.05s.14.04.17.11l-.09.1ZM61.37,108.56c-.44.52-.86,1.03-1.1,1.64.42-.42.79-.98,1.1-1.64Z"/>
    <path class="st0" d="M66.99,106.07c.47.51.73,1.06.75,1.71,0,.31-.05.67-.14,1.01-.09.31-.27.58-.5.78l-.12.1c-.19.13-.38.2-.57.21-.1,0-.19-.02-.29-.04l-.12-.05c-.2-.11-.37-.33-.45-.61-.11-.31-.16-.62-.15-.93.02-.91.07-1.73.43-2.51l.07-.1s.05-.07.05-.07h-.02s-.12-.04-.22-.14h-.05s-.12-.07-.1-.14l.07-.1s.12,0,.17.02c.02,0,.03.02.05.02.07.02.12.04.14.04v-.22c.02-.1.06-.19.11-.29l.07-.07c.05-.07.14-.15.31-.08l.1.07s0,.1-.02.14c0,.02-.02.02-.02.05l-.11.22q-.16.29.06.48c.07.05.15.12.25.21l.02.02.25.26ZM66.8,109.22c.35-.37.52-.93.48-1.53l.02.02c0-.24-.06-.45-.14-.67-.13-.43-.38-.83-.73-1.13,0-.02-.02-.02-.03-.05-.07-.07-.12-.12-.15-.12l-.05.1s0,.07-.02.12c-.24.82-.36,1.55-.34,2.15v.26c.02.26.02.48.1.67.11.31.21.47.33.49.12.02.29-.08.52-.33Z"/>
    <path class="st0" d="M79.1,104.82c.07,0,.14.04.2.11,0-.05-.03-.09-.03-.14.05.05.07.09.08.14-.02.07-.09.12-.16.17l-.07.05c-.33.25-.66.5-.99.73l-.42.3c-.82.62-1.62,1.3-2.27,1.87-.07.07-.09.12-.09.15s.03.07.1.12c.22.16.35.35.4.54s.01.41,0,.58c-.1.65-.37,1.26-.86,1.87l-.23.27c-.65.76-1.35,1.29-2.14,1.58l-.31.11-.26.06c-.1.03-.17.05-.24.05h-.14c-.19,0-.36-.06-.46-.17-.12-.14-.15-.35-.09-.6.18-.53.52-1,.8-1.37.76-1.03,1.62-1.99,2.58-2.86.05-.03.09-.07.14-.12-.56-.13-.97-.19-1.35-.22-.65-.05-1.3-.15-1.93-.26l-.58-.05c-.27-.04-.53-.13-.82-.29-.61-.32-.87-.89-.72-1.56.13-.6.35-1.09.68-1.51.97-1.28,2.26-2.16,3.86-2.59.4-.11.84-.1,1.27.06.9.31,1.23.97,1.02,1.96-.23,1.11-.95,1.92-1.63,2.57-.05.03-.09.07-.14.08-.02,0-.05-.02-.07-.05-.07-.09,0-.17.04-.22.28-.32.58-.66.83-1.06.37-.59.57-1.1.65-1.63.06-.43-.02-.79-.25-1.05-.05-.07-.12-.12-.2-.16-.22-.14-.51-.23-.85-.22-.7.02-1.31.3-1.85.61-1.13.63-1.91,1.3-2.43,2.11-.32.49-.52.95-.61,1.41-.02.12-.02.22-.01.31.04.38.24.67.65.84.39.16.8.19,1.21.23.07.02.15.04.22.04.07.02.14.02.22.02l.34.04.65.08.29.04c.58.05,1.18.13,1.76.28.1.02.14,0,.21-.05,1.19-1.07,2.44-2.02,3.73-2.97l.07-.07c.07-.1.14-.15.24-.15ZM71.42,113.02l.02-.02s.07.07.12.07c.05.02.12.02.22,0,.17-.03.36-.08.52-.16,1.07-.46,1.93-1.21,2.6-2.24.39-.61.57-1.14.57-1.67.02-.26-.06-.45-.26-.59-.05-.02-.1-.04-.12-.04-.05,0-.1.03-.14.08-1.4,1.29-2.38,2.37-3.16,3.53-.14.2-.25.44-.36.73-.07.15-.06.27-.01.34Z"/>
    <path class="st0" d="M82.95,105.14c.07.07,0,.33,0,.33-.04.19-.08.39-.15.56-.47,1.09-.96,2.26-1.63,3.36l-.14.2c-.11.17-.23.37-.37.54-.09.12-.21.22-.33.32-.12.1-.26.18-.38.2-.07.03-.12.03-.19.03-.05,0-.1,0-.14-.02-.24-.06-.44-.25-.57-.53-.23-.47-.27-1-.31-1.5l-.02-.72c0-1.01.04-1.92.13-2.81,0-.07.02-.12.04-.17.02-.07.04-.15.04-.24v-.02s0-.02.02-.05l.07-.05s.07-.03.1-.03c.05,0,.07.02.1.05.02.02.05.07.05.12v.22c.01.14.01.29-.05.43-.09.22-.08.46-.08.7l.02.81c0,.14-.02.31-.01.46-.01.31,0,.6,0,.91,0,.24.04.45.07.69v.05c.04.36.1.74.25,1.07.08.17.15.24.22.26.07.02.17-.03.31-.15.33-.27.56-.64.81-1.03.48-.81.96-1.73,1.45-2.85l.23-.49.14-.27.09-.19q.04-.12.19-.2s.07-.03.1,0c-.02,0-.05.03-.07.03ZM79.76,99.45l.07-.05c-.07,0-.14-.02-.2-.09-.07-.09,0-.19.04-.27.02-.05.05-.07.02-.14-.05-.09-.05-.19,0-.26.07-.1.19-.15.33-.15.03.02.07.02.12.02.12.04.27.09.34.23.03.05.03.09.03.14-.02.12-.11.2-.21.27l-.07.07c-.09.1-.19.15-.28.2-.05.03-.07.03-.12.03h-.07Z"/>
    <path class="st0" d="M89.36,100.44c.07.05.17.09.13.19-.04.1-.14.05-.21.03-.24-.09-.51-.18-.75-.22-.39-.06-.75-.1-1.13-.13l-.41-.06c-.82-.1-1.64-.14-2.45-.09-.26,0-.55.04-.84.07-.19.03-.26.1-.28.3,0,.14-.02.27-.01.41-.04,1.2-.07,2.38-.04,3.58.01.41.05.79.06,1.2.11,1.92.23,3.83.43,5.72.07.74.12,1.48.16,2.23,0,.14-.02.31-.03.46-.02.17-.14.22-.28.18-.12-.04-.2-.11-.15-.26.09-.27.03-.55,0-.82l-.19-1.7-.3-2.97c-.11-1.12-.19-2.25-.22-3.4-.01-.43-.03-.86-.01-1.3,0-.26,0-.55,0-.82,0-.82.02-1.61.07-2.43.02-.17-.05-.19-.2-.16-.93.2-1.81.49-2.66.9-.12.05-.24.1-.35.18l-.57.31c-.19.13-.38.25-.52.42-.12.15-.31.15-.48.04v-.07c1.26-1.05,2.73-1.69,4.3-2.07.36-.08.43-.08.47-.23.02-.07.02-.19.04-.38.04-.96.11-1.92.18-2.89.02-.12,0-.31.18-.32.22,0,.22.19.23.35.01.5-.02.98-.03,1.49-.01.36-.03.74-.02,1.1,0,.07-.02.14-.02.22-.01.38-.04.41.35.37.26-.03.55-.04.81-.05,1.49-.04,2.93.2,4.38.49.14.02.27.06.39.16l-.02-.02Z"/>
    <path class="st0" d="M90.89,104.9c.07.07,0,.33,0,.33-.04.19-.08.39-.15.56-.47,1.09-.96,2.26-1.63,3.36l-.14.2c-.11.17-.23.37-.37.54-.09.12-.21.22-.33.32-.12.1-.26.18-.38.2-.07.03-.12.03-.19.03-.05,0-.1,0-.14-.02-.24-.06-.44-.25-.57-.53-.23-.47-.27-1-.31-1.5l-.02-.72c0-1.01.04-1.92.13-2.81,0-.07.02-.12.04-.17.02-.07.04-.15.04-.24v-.02s0-.02.02-.05l.07-.05s.07-.03.1-.03c.05,0,.07.02.1.05.02.02.05.07.05.12v.22c.01.14.01.29-.05.43-.09.22-.08.46-.08.7l.02.81c0,.14-.02.31-.01.46-.01.31,0,.6,0,.91,0,.24.04.45.07.69v.05c.04.36.1.74.25,1.07.08.17.15.24.22.26.07.02.17-.03.31-.15.33-.27.56-.64.81-1.03.48-.81.96-1.73,1.45-2.85l.23-.49.14-.27.09-.19q.04-.12.19-.2s.07-.03.1,0c-.02,0-.05.03-.07.03ZM87.7,99.21l.07-.05c-.07,0-.14-.02-.2-.09-.07-.09,0-.19.04-.27.02-.05.05-.07.02-.14-.05-.09-.05-.19,0-.26.07-.1.19-.15.33-.15.03.02.07.02.12.02.12.04.27.09.34.23.03.05.03.09.03.14-.02.12-.11.2-.21.27l-.07.07c-.09.1-.19.15-.28.2-.05.03-.07.03-.12.03h-.07Z"/>
    <path class="st0" d="M96.98,99.78c.05-.1.09-.15.19-.08l.05-.07c.1.07.05.14,0,.24-.67,1.65-1.27,3.35-1.87,5.05l-.64,1.84c-.47,1.31-.88,2.64-1.23,4.02-.06.24-.13.48-.27.7-.07.12-.14.22-.35.2-.22,0-.41-.18-.57-.46-.3-.57-.49-1.19-.68-1.8-.3-1.1-.52-2.19-.75-3.31-.12-.65-.25-1.26-.39-1.91-.03-.07-.05-.17.02-.22.07-.05.14.02.22.06.1.09.13.24.18.38.27.88.44,1.76.63,2.67l.11.45.11.48.24.98c.16.64.33,1.29.56,1.9.05.14.06.38.2.38s.18-.25.23-.39c.26-.85.5-1.7.79-2.52.79-2.35,1.66-4.68,2.55-7.01l.36-.92.29-.66Z"/>
    <path class="st0" d="M103.12,104.45s.03.05.03.07c-.02.05-.09.07-.14.1-.64.31-1.05.85-1.47,1.36l-.42.52-.37.44c-.6.71-1.23,1.45-2,2.05-.23.17-.52.3-.8.38-.12.03-.24.06-.36.06-.19,0-.36-.04-.51-.13-.24-.14-.42-.37-.5-.68-.08-.24-.11-.48-.12-.72.08-1.42.5-2.7,1.25-3.83.14-.22.3-.39.49-.52.21-.13.45-.16.67-.09.22.09.37.28.45.52.11.38.02.77-.06,1.06-.26.9-.74,1.68-1.49,2.4-.16.17-.37.37-.63.45-.17.05-.19.15-.18.29v.07c.09.48.22.74.41.83.2.09.48-.01.88-.31.59-.42,1.08-.97,1.54-1.49l1.05-1.11c.39-.44.81-.91,1.26-1.33.21-.2.47-.37.78-.5.12-.05.24-.03.29.06l-.02.05ZM97.05,107.63c-.02.07-.02.1,0,.12.03.02.05,0,.09-.05.12-.08.21-.15.3-.25.63-.64,1.09-1.4,1.37-2.25.09-.27.13-.56.14-.87v-.07s0-.12-.03-.19c-.03-.12-.05-.19-.1-.21h-.02s-.12.03-.21.08c-.17.1-.3.25-.47.47-.41.61-.71,1.32-.94,2.24-.06.24-.11.48-.15.72l-.07.22.07.05Z"/>
  </g>
  <g>
    <path class="st0" d="M121.6,81.84l-.35.99-.2.58-2.76,8.05c-.77,2.3-1.54,4.8-2.34,7.61-.74,2.57-1.25,4.67-1.65,6.6-.15.77-.29,1.54-.41,2.32l-.08.58-.08.51-.24,1.54c-.08.48-.17.89-.25,1.28-.04.17-.09.29-.13.39-.09.15-.21.25-.33.25-.07,0-.12-.02-.17-.07-.05-.05-.12-.09-.17-.16-.25-.4-.41-.85-.57-1.28l-.02-.02v-.02s-.21-.62-.21-.62c-.79-2.3-1.27-4.69-1.71-6.81-.25-1.22-.48-2.51-.75-4.08-.11-.62-.23-1.27-.32-1.89l-.12-.65c-.18-1.05-.33-2.13-.53-3.18l-.18-1.07c-.37-2.03-.77-4.13-1.5-6.12v-.02c-.16-.45-.34-.93-.64-1.33-.15-.19-.27-.28-.39-.28s-.24.1-.37.3c-.25.39-.43.85-.51,1.36v.07s0,.1-.02.12c-.02.02-.05.03-.1.03s-.1-.02-.12-.04c-.03-.05-.03-.1-.03-.14.06-.51.21-1.16.69-1.68.21-.22.55-.23.86-.03.37.25.57.63.72.96.1.21.18.4.26.62.49,1.23.82,2.47,1.07,3.55l.14.64c.5,2.34.88,4.73,1.26,7.04l.15.84.11.62c.32,1.89.69,3.82,1.11,5.87.03.19.06.38.11.57.39,1.77.88,3.79,1.64,5.81v.07c.08.21.16.45.33.66.21-.85.34-1.64.43-2.39.41-3.13,1.06-6.34,1.95-9.54.11-.44.24-.85.37-1.28.07-.19.11-.39.15-.58.06-.29.15-.58.24-.87.11-.32.2-.63.28-.94l.2-.58.35-1.16.24-.77.4-1.16.53-1.53.2-.53.2-.56.51-1.53.35-1.02.33-.95.53-1.53.04-.14.15-.46.31-.9.18-.51c.13-.34.27-.68.38-1.02.18-.48.36-.87.54-1.24.05-.1.14-.27.33-.18,0,.02.03.02.05.02,0,.02-.02.05-.02.05-.18.32-.29.63-.43.97ZM122.1,80.86l-.05-.14v.1s.05.02.05.05Z"/>
    <path class="st0" d="M122.25,102.82c.07.07,0,.33,0,.33-.04.19-.08.39-.15.56-.47,1.09-.96,2.26-1.63,3.36l-.14.2c-.11.17-.23.37-.37.54-.09.12-.21.22-.33.32-.12.1-.26.18-.38.2-.07.03-.12.03-.19.03-.05,0-.1,0-.14-.02-.24-.06-.44-.25-.57-.53-.23-.47-.27-1-.31-1.5l-.02-.72c0-1.01.04-1.92.13-2.81,0-.07.02-.12.04-.17.02-.07.04-.15.04-.24v-.02s0-.02.02-.05l.07-.05s.07-.03.1-.03c.05,0,.07.02.1.05.02.02.05.07.05.12v.22c.01.14.01.29-.05.43-.09.22-.08.46-.08.7l.02.81c0,.14-.02.31-.01.46-.01.31,0,.6,0,.91,0,.24.04.45.07.69v.05c.04.36.1.74.25,1.07.08.17.15.24.22.26.07.02.17-.03.31-.15.33-.27.56-.64.81-1.03.48-.81.96-1.73,1.45-2.85l.23-.49.14-.27.09-.19q.04-.12.19-.2s.07-.03.1,0c-.02,0-.05.03-.07.03ZM118.06,99.13l.07-.05c-.07,0-.14-.02-.2-.09-.07-.09,0-.19.04-.27.02-.05.05-.07.02-.14-.05-.09-.05-.19,0-.26.07-.1.19-.15.33-.15.03.02.07.02.12.02.12.04.27.09.34.23.03.05.03.09.03.14-.02.12-.11.2-.21.27l-.07.07c-.09.1-.19.15-.28.2-.05.03-.07.03-.12.03h-.07Z"/>
    <path class="st0" d="M129.49,90.97c-.08,1.32-.65,2.44-1.36,3.5-.9,1.32-1.97,2.48-3.13,3.57-.82.77-1.63,1.54-2.48,2.26-.09.07-.11.17-.11.29-.01.38,0,.74,0,1.13l.03,1.13c.06,1.13.21,2.25.41,3.37.17.98.39,1.96.64,2.93.16-.44.29-.87.47-1.29l.18-.41c.38-.83.84-1.61,1.44-2.3.12-.15.23-.27.37-.39.16-.17.33-.32.54-.45.17-.1.33-.11.5,0,.07.07.15.14.17.21.03.1.03.19.03.29-.04.34-.17.65-.31.95l-.23.41c-.66,1.12-1.45,2.13-2.38,3.02-.07.07-.14.17-.26.13-.19-.07-.21.05-.23.2-.06.31-.13.63-.09.94,0,.1.08.24-.11.24-.07,0-.14-.02-.19-.04-.05-.02-.1-.07-.1-.17-.06-.43-.17-.83-.28-1.24-.41-1.72-.8-3.43-.99-5.18-.1-.98-.15-1.96-.16-2.95,0-.1.04-.22-.06-.26s-.17.08-.24.13l-.56.38c-.09.07-.19.08-.24,0-.08-.12.07-.15.11-.2.26-.2.52-.4.8-.58.17-.1.21-.22.23-.41.14-2.69.49-5.37,1.42-7.94.42-1.16.94-2.28,1.7-3.27l.35-.42c.35-.39.75-.72,1.27-.85.38-.11.74-.02,1.08.14h.02c1.1.52,1.81,1.82,1.72,3.12ZM128.7,92.68c.36-.8.6-1.63.5-2.51-.1-.79-.43-1.45-1.09-1.94-.2-.14-.41-.23-.61-.27-.41-.08-.79.02-1.19.3-.35.25-.66.55-.91.89-.78,1.08-1.35,2.27-1.77,3.53-.55,1.7-.86,3.43-1.09,5.19-.04.24-.06.46-.08.7-.03.46-.04.94-.05,1.42.07-.03.1-.03.12-.03,1.1-.97,2.17-1.96,3.17-3.02l.58-.66c.95-1.08,1.81-2.24,2.39-3.55,0-.02.02-.02.02-.05ZM126.77,105.14c.07-.17.16-.34.1-.53v-.02c-.93.32-2.9,3.4-2.87,4.53.09-.07.14-.17.21-.25.65-.74,1.25-1.52,1.8-2.36.3-.44.57-.88.75-1.37Z"/>
    <path class="st0" d="M135.4,102.15s.03.05.03.07c-.02.05-.09.07-.14.1-.64.31-1.05.85-1.47,1.36l-.42.52-.37.44c-.6.71-1.23,1.45-2,2.05-.23.17-.52.3-.8.38-.12.03-.24.06-.36.06-.19,0-.36-.04-.51-.13-.24-.14-.42-.37-.5-.68-.08-.24-.11-.48-.12-.72.08-1.42.5-2.7,1.25-3.83.14-.22.3-.39.49-.52.21-.13.45-.16.67-.09.22.09.37.28.45.52.11.38.02.77-.06,1.06-.26.9-.74,1.68-1.49,2.4-.16.17-.37.37-.63.45-.17.05-.19.15-.18.29v.07c.09.48.22.74.41.83.2.09.48-.01.88-.31.59-.42,1.08-.97,1.54-1.49l1.05-1.11c.39-.44.81-.91,1.26-1.33.21-.2.47-.37.78-.5.12-.05.24-.03.29.06l-.02.05ZM129.32,105.33c-.02.07-.02.1,0,.12.03.02.05,0,.09-.05.12-.08.21-.15.3-.25.63-.64,1.09-1.4,1.37-2.25.09-.27.13-.56.14-.87v-.07s0-.12-.03-.19c-.03-.12-.05-.19-.1-.21h-.02s-.12.03-.21.08c-.17.1-.3.25-.47.47-.41.61-.71,1.32-.94,2.24-.06.24-.11.48-.15.72l-.07.22.07.05Z"/>
    <path class="st0" d="M144.69,101.54c.07,0,.14.04.2.11,0-.05-.03-.09-.03-.14.05.05.07.09.08.14-.02.07-.09.12-.16.17l-.07.05c-.33.25-.66.5-.99.73l-.42.3c-.82.62-1.62,1.3-2.27,1.87-.07.07-.09.12-.09.15s.03.07.1.12c.22.16.35.35.4.54.05.19.01.41,0,.58-.1.65-.37,1.26-.86,1.87l-.23.27c-.65.76-1.35,1.29-2.14,1.58l-.31.11-.26.06c-.1.03-.17.05-.24.05h-.14c-.19,0-.36-.06-.46-.17-.12-.14-.15-.35-.09-.6.18-.53.52-1,.8-1.37.76-1.03,1.62-1.99,2.58-2.86.05-.03.09-.07.14-.12-.56-.13-.97-.19-1.35-.22-.65-.05-1.3-.15-1.93-.26l-.58-.05c-.27-.04-.53-.13-.82-.29-.61-.32-.87-.89-.72-1.56.13-.6.35-1.09.68-1.51.97-1.28,2.26-2.16,3.86-2.59.4-.11.84-.1,1.27.06.9.31,1.23.97,1.02,1.96-.23,1.11-.95,1.92-1.63,2.57-.05.03-.09.07-.14.08-.02,0-.05-.02-.07-.05-.07-.09,0-.17.04-.22.28-.32.58-.66.83-1.06.37-.59.57-1.1.65-1.63.06-.43-.02-.79-.25-1.05-.05-.07-.12-.12-.2-.16-.22-.14-.51-.23-.85-.22-.7.02-1.31.3-1.85.61-1.13.63-1.91,1.3-2.43,2.11-.32.49-.52.95-.61,1.41-.02.12-.02.22-.01.31.04.38.24.67.65.84.39.16.8.19,1.21.23.07.02.15.04.22.04.07.02.14.02.22.02l.34.04.65.08.29.04c.58.05,1.18.13,1.76.28.1.02.14,0,.21-.05,1.19-1.07,2.44-2.02,3.73-2.97l.07-.07c.07-.1.14-.15.24-.15ZM137.01,109.74l.02-.02s.07.07.12.07c.05.02.12.02.22,0,.17-.03.36-.08.52-.16,1.07-.46,1.93-1.21,2.6-2.24.39-.61.57-1.14.57-1.67.02-.26-.06-.45-.26-.59-.05-.02-.1-.04-.12-.04-.05,0-.1.03-.14.08-1.4,1.29-2.38,2.37-3.16,3.53-.14.2-.25.44-.36.73-.07.15-.06.27-.01.34Z"/>
  </g>
</svg>